<?xml version="1.0" encoding="iso-8859-1"?>
<!-- Generator: Adobe Illustrator 19.0.0, SVG Export Plug-In . SVG Version: 6.00 Build 0)  -->
<svg version="1.1" id="Layer_1" xmlns="http://www.w3.org/2000/svg" xmlns:xlink="http://www.w3.org/1999/xlink" x="0px" y="0px"
	 viewBox="0 0 512 512" style="enable-background:new 0 0 512 512;" xml:space="preserve">
<g>
	<g>
		<g>
			<path d="M469.333,170.667h-42.667v-128C426.667,19.14,407.526,0,384,0H162.133c-23.526,0-42.667,19.14-42.667,42.667V102.4h-76.8
				C19.14,102.4,0,121.54,0,145.067V332.8c0,23.526,19.14,42.667,42.667,42.667H102.4V435.2c0,3.447,2.074,6.562,5.265,7.885
				c1.058,0.435,2.167,0.648,3.268,0.648c2.219,0,4.403-0.87,6.033-2.5l65.766-65.766H204.8v25.6
				c0,23.526,19.14,42.667,42.667,42.667h76.8v59.733c0,3.447,2.074,6.562,5.265,7.885c1.058,0.435,2.167,0.648,3.268,0.648
				c2.219,0,4.403-0.87,6.033-2.5l65.766-65.766h64.734c23.526,0,42.667-19.14,42.667-42.667V213.333
				C512,189.807,492.86,170.667,469.333,170.667z M136.533,42.667c0-14.114,11.486-25.6,25.6-25.6H384
				c14.114,0,25.6,11.486,25.6,25.6V230.4c0,14.114-11.486,25.6-25.6,25.6h-51.2c-2.27,0-4.437,0.896-6.033,2.5l-53.7,53.7v-47.667
				c0-4.71-3.814-8.533-8.533-8.533h-102.4c-14.114,0-25.6-11.486-25.6-25.6V42.667z M179.2,358.4c-2.27,0-4.437,0.896-6.033,2.5
				l-53.7,53.7v-47.667c0-4.71-3.814-8.533-8.533-8.533H42.667c-14.114,0-25.6-11.486-25.6-25.6V145.067
				c0-14.114,11.486-25.6,25.6-25.6h76.8V230.4c0,23.526,19.14,42.667,42.667,42.667H204.8V358.4H179.2z M494.933,401.067
				c0,14.114-11.486,25.6-25.6,25.6h-68.267c-2.27,0-4.437,0.896-6.033,2.5l-53.7,53.7V435.2c0-4.71-3.814-8.533-8.533-8.533
				h-85.333c-14.114,0-25.6-11.486-25.6-25.6v-34.133v-93.867H256V332.8c0,3.448,2.074,6.562,5.265,7.885
				c1.058,0.435,2.167,0.649,3.268,0.649c2.219,0,4.403-0.87,6.033-2.5l65.766-65.766H384c23.526,0,42.667-19.14,42.667-42.667
				v-42.667h42.667c14.114,0,25.6,11.486,25.6,25.6V401.067z"/>
			<path d="M196.267,68.267h119.467c4.719,0,8.533-3.823,8.533-8.533s-3.814-8.533-8.533-8.533H196.267
				c-4.719,0-8.533,3.823-8.533,8.533S191.548,68.267,196.267,68.267z"/>
			<path d="M196.267,119.467h153.6c4.719,0,8.533-3.823,8.533-8.533s-3.814-8.533-8.533-8.533h-153.6
				c-4.719,0-8.533,3.823-8.533,8.533S191.548,119.467,196.267,119.467z"/>
			<path d="M196.267,170.667h68.267c4.719,0,8.533-3.823,8.533-8.533c0-4.71-3.814-8.533-8.533-8.533h-68.267
				c-4.719,0-8.533,3.823-8.533,8.533C187.733,166.844,191.548,170.667,196.267,170.667z"/>
			<path d="M196.267,221.867H332.8c4.719,0,8.533-3.823,8.533-8.533c0-4.71-3.814-8.533-8.533-8.533H196.267
				c-4.719,0-8.533,3.823-8.533,8.533C187.733,218.044,191.548,221.867,196.267,221.867z"/>
			<path d="M76.8,170.667h17.067c4.719,0,8.533-3.823,8.533-8.533c0-4.71-3.814-8.533-8.533-8.533H76.8
				c-4.719,0-8.533,3.823-8.533,8.533C68.267,166.844,72.081,170.667,76.8,170.667z"/>
			<path d="M76.8,221.867h17.067c4.719,0,8.533-3.823,8.533-8.533c0-4.71-3.814-8.533-8.533-8.533H76.8
				c-4.719,0-8.533,3.823-8.533,8.533C68.267,218.044,72.081,221.867,76.8,221.867z"/>
			<path d="M76.8,273.067h34.133c4.719,0,8.533-3.823,8.533-8.533c0-4.71-3.814-8.533-8.533-8.533H76.8
				c-4.719,0-8.533,3.823-8.533,8.533C68.267,269.244,72.081,273.067,76.8,273.067z"/>
			<path d="M179.2,307.2H76.8c-4.719,0-8.533,3.823-8.533,8.533s3.814,8.533,8.533,8.533h102.4c4.719,0,8.533-3.823,8.533-8.533
				S183.919,307.2,179.2,307.2z"/>
			<path d="M307.2,341.333h51.2c4.719,0,8.533-3.823,8.533-8.533c0-4.71-3.814-8.533-8.533-8.533h-51.2
				c-4.719,0-8.533,3.823-8.533,8.533C298.667,337.51,302.481,341.333,307.2,341.333z"/>
			<path d="M426.667,375.467H307.2c-4.719,0-8.533,3.823-8.533,8.533s3.814,8.533,8.533,8.533h119.467
				c4.719,0,8.533-3.823,8.533-8.533S431.386,375.467,426.667,375.467z"/>
		</g>
	</g>
</g>
<g>
</g>
<g>
</g>
<g>
</g>
<g>
</g>
<g>
</g>
<g>
</g>
<g>
</g>
<g>
</g>
<g>
</g>
<g>
</g>
<g>
</g>
<g>
</g>
<g>
</g>
<g>
</g>
<g>
</g>
</svg>
