<?xml version="1.0" encoding="iso-8859-1"?>
<!-- Generator: Adobe Illustrator 19.0.0, SVG Export Plug-In . SVG Version: 6.00 Build 0)  -->
<svg version="1.1" id="Layer_1" xmlns="http://www.w3.org/2000/svg" xmlns:xlink="http://www.w3.org/1999/xlink" x="0px" y="0px"
	 viewBox="0 0 512.002 512.002" style="enable-background:new 0 0 512.002 512.002;" xml:space="preserve">
<g>
	<g>
		<g>
			<path d="M120.243,272.913c-0.265,0.026-0.503,0.154-0.777,0.154H85.333c-4.719,0-8.533-3.823-8.533-8.533
				c0-4.71,3.814-8.533,8.533-8.533h22.921c-3.712-7.774-5.854-16.427-5.854-25.6v-8.533H85.333c-4.719,0-8.533-3.823-8.533-8.533
				c0-4.71,3.814-8.533,8.533-8.533H102.4v-34.133H85.333c-4.719,0-8.533-3.823-8.533-8.533s3.814-8.533,8.533-8.533H102.4v-51.2
				H42.667C19.14,102.4,0,121.54,0,145.067V332.8c0,23.526,19.14,42.667,42.667,42.667H102.4V435.2c0,3.448,2.074,6.562,5.265,7.885
				c1.058,0.435,2.167,0.648,3.268,0.648c2.219,0,4.403-0.862,6.033-2.5l62.234-65.766h8.533v-51.2h-102.4
				c-4.719,0-8.533-3.823-8.533-8.533s3.814-8.533,8.533-8.533h102.4v-17.067h-25.6
				C145.826,290.133,131.038,283.546,120.243,272.913z"/>
			<path d="M469.335,170.668h-25.6v59.733c0,32.939-26.803,59.733-59.733,59.733H343.4L282.634,350.9
				c-4.83,4.838-11.264,7.501-18.099,7.501c-3.379,0-6.664-0.657-9.779-1.946c-9.609-3.977-15.821-13.261-15.821-23.654v-42.667
				h-34.133v110.933c0,23.526,19.14,42.667,42.667,42.667h76.8v59.733c0,3.447,2.074,6.562,5.265,7.885
				c1.058,0.435,2.167,0.648,3.268,0.648c2.219,0,4.403-0.87,6.033-2.5l65.766-65.766h64.734c23.526,0,42.667-19.14,42.667-42.667
				V213.334C512.002,189.808,492.861,170.668,469.335,170.668z M341.335,324.268h51.2c4.719,0,8.533,3.823,8.533,8.533
				c0,4.71-3.814,8.533-8.533,8.533h-51.2c-4.719,0-8.533-3.823-8.533-8.533C332.802,328.091,336.616,324.268,341.335,324.268z
				 M460.802,392.534H341.335c-4.719,0-8.533-3.823-8.533-8.533s3.814-8.533,8.533-8.533h119.467c4.719,0,8.533,3.823,8.533,8.533
				S465.521,392.534,460.802,392.534z"/>
			<path d="M162.135,273.068h93.867v59.733c0,3.448,2.074,6.562,5.265,7.885c1.058,0.435,2.167,0.649,3.268,0.649
				c2.219,0,4.403-0.87,6.033-2.5l65.766-65.766h47.667c23.526,0,42.667-19.14,42.667-42.667V42.668
				c0-23.526-19.14-42.667-42.667-42.667H162.135c-23.526,0-42.667,19.14-42.667,42.667v187.733
				C119.468,253.927,138.609,273.068,162.135,273.068z M196.268,51.201h119.467c4.719,0,8.533,3.823,8.533,8.533
				s-3.814,8.533-8.533,8.533H196.268c-4.719,0-8.533-3.823-8.533-8.533S191.549,51.201,196.268,51.201z M196.268,102.401h153.6
				c4.719,0,8.533,3.823,8.533,8.533s-3.814,8.533-8.533,8.533h-153.6c-4.719,0-8.533-3.823-8.533-8.533
				S191.549,102.401,196.268,102.401z M196.268,153.601h68.267c4.719,0,8.533,3.823,8.533,8.533c0,4.71-3.814,8.533-8.533,8.533
				h-68.267c-4.719,0-8.533-3.823-8.533-8.533C187.735,157.424,191.549,153.601,196.268,153.601z M196.268,204.801h136.533
				c4.719,0,8.533,3.823,8.533,8.533c0,4.71-3.814,8.533-8.533,8.533H196.268c-4.719,0-8.533-3.823-8.533-8.533
				C187.735,208.624,191.549,204.801,196.268,204.801z"/>
		</g>
	</g>
</g>
<g>
</g>
<g>
</g>
<g>
</g>
<g>
</g>
<g>
</g>
<g>
</g>
<g>
</g>
<g>
</g>
<g>
</g>
<g>
</g>
<g>
</g>
<g>
</g>
<g>
</g>
<g>
</g>
<g>
</g>
</svg>
