<?xml version="1.0" encoding="iso-8859-1"?>
<!-- Generator: Adobe Illustrator 19.0.0, SVG Export Plug-In . SVG Version: 6.00 Build 0)  -->
<svg version="1.1" id="Layer_1" xmlns="http://www.w3.org/2000/svg" xmlns:xlink="http://www.w3.org/1999/xlink" x="0px" y="0px"
	 viewBox="0 0 512 512" style="enable-background:new 0 0 512 512;" xml:space="preserve">
<g>
	<path style="fill:#F0C419;" d="M388.414,0H158.897c-19.5,0-35.31,15.81-35.31,35.31v194.207c0,19.5,15.81,35.31,35.31,35.31
		h105.931v70.621l70.621-70.621h52.966c19.5,0,35.31-15.81,35.31-35.31V35.31C423.724,15.81,407.914,0,388.414,0"/>
	<path style="fill:#E1705C;" d="M176.552,370.759h35.31V264.828h-52.966c-19.5,0-35.31-15.81-35.31-35.31V105.931H35.31
		c-19.5,0-35.31,15.81-35.31,35.31v194.207c0,19.5,15.81,35.31,35.31,35.31h70.621v70.621L176.552,370.759z"/>
	<path style="fill:#5ACF6E;" d="M476.69,176.552h-52.966v52.966c0,19.5-15.81,35.31-35.31,35.31h-52.966l-70.621,70.621v-70.621
		h-52.966v141.241c0,19.5,15.81,35.31,35.31,35.31h88.276V512l70.621-70.621h70.621c19.5,0,35.31-15.81,35.31-35.31V211.862
		C512,192.362,496.19,176.552,476.69,176.552"/>
	<g>
		<path style="fill:#FFFFFF;" d="M317.793,61.793H194.207c-4.882,0-8.828-3.955-8.828-8.828s3.946-8.828,8.828-8.828h123.586
			c4.882,0,8.828,3.955,8.828,8.828S322.675,61.793,317.793,61.793"/>
		<path style="fill:#FFFFFF;" d="M353.103,114.759H194.207c-4.882,0-8.828-3.955-8.828-8.828c0-4.873,3.946-8.828,8.828-8.828
			h158.897c4.882,0,8.828,3.955,8.828,8.828C361.931,110.804,357.985,114.759,353.103,114.759"/>
		<path style="fill:#FFFFFF;" d="M264.828,167.724h-70.621c-4.882,0-8.828-3.955-8.828-8.828c0-4.873,3.946-8.828,8.828-8.828
			h70.621c4.882,0,8.828,3.955,8.828,8.828C273.655,163.769,269.709,167.724,264.828,167.724"/>
		<path style="fill:#FFFFFF;" d="M335.448,220.69H194.207c-4.882,0-8.828-3.955-8.828-8.828c0-4.873,3.946-8.828,8.828-8.828
			h141.241c4.882,0,8.828,3.955,8.828,8.828C344.276,216.735,340.33,220.69,335.448,220.69"/>
		<path style="fill:#FFFFFF;" d="M88.276,167.724H70.621c-4.882,0-8.828-3.955-8.828-8.828c0-4.873,3.946-8.828,8.828-8.828h17.655
			c4.882,0,8.828,3.955,8.828,8.828C97.103,163.769,93.158,167.724,88.276,167.724"/>
		<path style="fill:#FFFFFF;" d="M88.276,220.69H70.621c-4.882,0-8.828-3.955-8.828-8.828c0-4.873,3.946-8.828,8.828-8.828h17.655
			c4.882,0,8.828,3.955,8.828,8.828C97.103,216.735,93.158,220.69,88.276,220.69"/>
		<path style="fill:#FFFFFF;" d="M105.931,273.655h-35.31c-4.882,0-8.828-3.955-8.828-8.828S65.739,256,70.621,256h35.31
			c4.882,0,8.828,3.955,8.828,8.828S110.813,273.655,105.931,273.655"/>
		<path style="fill:#FFFFFF;" d="M176.552,326.621H70.621c-4.882,0-8.828-3.955-8.828-8.828c0-4.873,3.946-8.828,8.828-8.828
			h105.931c4.882,0,8.828,3.955,8.828,8.828C185.379,322.666,181.433,326.621,176.552,326.621"/>
		<path style="fill:#FFFFFF;" d="M361.931,344.276h-52.966c-4.882,0-8.828-3.955-8.828-8.828s3.946-8.828,8.828-8.828h52.966
			c4.882,0,8.828,3.955,8.828,8.828S366.813,344.276,361.931,344.276"/>
		<path style="fill:#FFFFFF;" d="M432.552,397.241H308.966c-4.882,0-8.828-3.955-8.828-8.828s3.946-8.828,8.828-8.828h123.586
			c4.882,0,8.828,3.955,8.828,8.828S437.433,397.241,432.552,397.241"/>
	</g>
</g>
<g>
</g>
<g>
</g>
<g>
</g>
<g>
</g>
<g>
</g>
<g>
</g>
<g>
</g>
<g>
</g>
<g>
</g>
<g>
</g>
<g>
</g>
<g>
</g>
<g>
</g>
<g>
</g>
<g>
</g>
</svg>
