<?xml version="1.0" encoding="iso-8859-1"?>
<!-- Generator: Adobe Illustrator 18.0.0, SVG Export Plug-In . SVG Version: 6.00 Build 0)  -->
<!DOCTYPE svg PUBLIC "-//W3C//DTD SVG 1.1//EN" "http://www.w3.org/Graphics/SVG/1.1/DTD/svg11.dtd">
<svg version="1.1" id="Capa_1" xmlns="http://www.w3.org/2000/svg" xmlns:xlink="http://www.w3.org/1999/xlink" x="0px" y="0px"
	 viewBox="0 0 345 345" style="enable-background:new 0 0 345 345;" xml:space="preserve">
<g>
	<path d="M172.5,0c-82.71,0-150,67.29-150,150s67.29,150,150,150s150-67.29,150-150S255.21,0,172.5,0z M172.5,270
		c-66.168,0-120-53.832-120-120s53.832-120,120-120s120,53.832,120,120S238.668,270,172.5,270z"/>
	<path d="M187.875,72.108c-1.278-4.278-5.214-7.21-9.679-7.21h-11.393c-4.465,0-8.4,2.932-9.679,7.21l-44.81,150
		c-0.913,3.058-0.328,6.367,1.578,8.926c1.906,2.56,4.909,4.067,8.101,4.067h8.354c4.481,0,8.428-2.953,9.691-7.253l9.642-32.809
		h45.484l9.809,32.85c1.277,4.279,5.213,7.212,9.679,7.212h8.354c0.008,0,0.015,0.001,0.02,0c5.579,0,10.102-4.522,10.102-10.102
		c0-1.239-0.223-2.426-0.631-3.523L187.875,72.108z M157.752,167.619l14.716-49.48l14.617,49.48H157.752z"/>
	<path d="M205.498,315h-65.996c-8.284,0-15,6.716-15,15s6.716,15,15,15h65.996c8.284,0,15-6.716,15-15S213.782,315,205.498,315z"/>
</g>
<g>
</g>
<g>
</g>
<g>
</g>
<g>
</g>
<g>
</g>
<g>
</g>
<g>
</g>
<g>
</g>
<g>
</g>
<g>
</g>
<g>
</g>
<g>
</g>
<g>
</g>
<g>
</g>
<g>
</g>
</svg>
