<svg height="512" viewBox="0 0 60 60" width="512" xmlns="http://www.w3.org/2000/svg"><g id="Page-1" fill="none" fill-rule="evenodd"><g id="002---Email-Notification" fill-rule="nonzero"><path id="Shape" d="m51.33 25.2c-.255485-1.6660335-1.0409567-3.2054177-2.24-4.39l-9.9-9.9c-1.1553501-1.16941808-2.6491014-1.94602879-4.27-2.22-2.5687896-.46017903-5.1998604.36950522-7.04 2.22l-16.97 16.97c-1.85049478 1.8401396-2.68017903 4.4712104-2.22 7.04.27397121 1.6208986 1.05058192 3.1146499 2.22 4.27l9.9 9.9c1.1845823 1.1990433 2.7239665 1.984515 4.39 2.24 2.5332748.4175889 5.1119604-.4171301 6.92-2.24l16.97-16.97c1.8228699-1.8080396 2.6575889-4.3867252 2.24-6.92z" fill="#f0c419"/><path id="Shape" d="m49.09 32.12-16.97 16.97c-1.8080396 1.8228699-4.3867252 2.6575889-6.92 2.24l1.56-17.98 1.05-.08c2.9007074-.2605566 5.1994434-2.5592926 5.46-5.46l.08-1.05 17.98-1.56c.4175889 2.5332748-.4171301 5.1119604-2.24 6.92z" fill="#f29c1f"/><path id="Shape" d="m34.92 8.69-1.57 18.07-.08 1.05c-.2605566 2.9007074-2.5592926 5.1994434-5.46 5.46l-1.05.08-18.07 1.57c-.46017903-2.5687896.36950522-5.1998604 2.22-7.04l16.97-16.97c1.8401396-1.85049478 4.4712104-2.68017903 7.04-2.22z" fill="#f3d55b"/><path id="Shape" d="m59 16c-.5522847 0-1-.4477153-1-1-.008266-7.17627506-5.8237249-12.99173398-13-13-.5522847 0-1-.44771525-1-1s.4477153-1 1-1c8.2803876.00936852 14.9906315 6.71961243 15 15 0 .2652165-.1053568.5195704-.2928932.7071068s-.4418903.2928932-.7071068.2928932z" fill="#fb7b76"/><path id="Shape" d="m55 16c-.5522847 0-1-.4477153-1-1-.006061-4.9680501-4.0319499-8.99393904-9-9-.5522847 0-1-.44771525-1-1s.4477153-1 1-1c6.0721626.0071635 10.9928365 4.92783745 11 11 0 .5522847-.4477153 1-1 1z" fill="#ff5364"/><path id="Shape" d="m51 16c-.5522847 0-1-.4477153-1-1-.0033061-2.7600532-2.2399468-4.9966939-5-5-.5522847 0-1-.44771525-1-1s.4477153-1 1-1c3.8641657.00440864 6.9955914 3.1358343 7 7 0 .5522847-.4477153 1-1 1z" fill="#df4d60"/><path id="Shape" d="m15 60c-8.28038757-.0093685-14.99063148-6.7196124-15-15 0-.5522847.44771525-1 1-1s1 .4477153 1 1c.00826602 7.1762751 5.82372494 12.991734 13 13 .5522847 0 1 .4477153 1 1s-.4477153 1-1 1z" fill="#fb7b76"/><path id="Shape" d="m15 56c-6.07216255-.0071635-10.9928365-4.9278374-11-11 .00000001-.5522847.44771526-1 1-1s.99999999.4477153 1 1c.00606096 4.9680501 4.0319499 8.993939 9 9 .5522847 0 1 .4477153 1 1s-.4477153 1-1 1z" fill="#ff5364"/><path id="Shape" d="m15 52c-3.8641657-.0044086-6.99559136-3.1358343-7-7 0-.5522847.44771525-1 1-1s1 .4477153 1 1c.0033061 2.7600532 2.2399468 4.9966939 5 5 .5522847 0 1 .4477153 1 1s-.4477153 1-1 1z" fill="#df4d60"/><path id="Shape" d="m1 16c-.55228475 0-1-.4477153-1-1 .00936852-8.28038757 6.71961243-14.99063148 15-15 .5522847 0 1 .44771525 1 1s-.4477153 1-1 1c-7.17627506.00826602-12.99173398 5.82372494-13 13 0 .5522847-.44771525 1-1 1z" fill="#fb7b76"/><path id="Shape" d="m5 16c-.55228475 0-1-.4477153-1-1 .0071635-6.07216255 4.92783745-10.9928365 11-11 .5522847.00000001 1 .44771526 1 1s-.4477153.99999999-1 1c-4.9680501.00606096-8.99393904 4.0319499-9 9 0 .5522847-.44771525 1-1 1z" fill="#ff5364"/><path id="Shape" d="m9 16c-.55228475 0-1-.4477153-1-1 .00440864-3.8641657 3.1358343-6.99559136 7-7 .5522847 0 1 .44771525 1 1s-.4477153 1-1 1c-2.7600532.0033061-4.9966939 2.2399468-5 5 0 .5522847-.44771525 1-1 1z" fill="#df4d60"/><path id="Shape" d="m45 60c-.5522847 0-1-.4477153-1-1s.4477153-1 1-1c7.1762751-.008266 12.991734-5.8237249 13-13 0-.5522847.4477153-1 1-1s1 .4477153 1 1c-.0093685 8.2803876-6.7196124 14.9906315-15 15z" fill="#fb7b76"/><path id="Shape" d="m45 56c-.5522847 0-1-.4477153-1-1s.4477153-1 1-1c4.9680501-.006061 8.993939-4.0319499 9-9 0-.5522847.4477153-1 1-1s1 .4477153 1 1c-.0071635 6.0721626-4.9278374 10.9928365-11 11z" fill="#ff5364"/><path id="Shape" d="m45 52c-.5522847 0-1-.4477153-1-1s.4477153-1 1-1c2.7600532-.0033061 4.9966939-2.2399468 5-5 0-.5522847.4477153-1 1-1s1 .4477153 1 1c-.0044086 3.8641657-3.1358343 6.9955914-7 7z" fill="#df4d60"/></g></g></svg>