<svg height="512" viewBox="0 0 60 60" width="512" xmlns="http://www.w3.org/2000/svg"><g id="Page-1" fill="none" fill-rule="evenodd"><g id="002---Email-Notification" fill="rgb(0,0,0)" fill-rule="nonzero"><path id="Shape" d="m7.565 33.536c-.00703999 2.3881504.94182127 4.6798214 2.635 6.364l9.9 9.9c3.5146131 3.514104 9.2123869 3.514104 12.727 0l16.973-16.972c3.514104-3.5146131 3.514104-9.2123869 0-12.727l-9.9-9.9c-3.5146131-3.51410396-9.2123869-3.51410396-12.727 0l-16.973 16.971c-1.69298976 1.6843052-2.64181683 3.9758937-2.635 6.364zm4.05 4.949c-.7511272-.7513749-1.3203256-1.664692-1.664-2.67l15.711-1.364-1.362 15.64c-1.051579-.3392947-2.0072635-.9240858-2.788-1.706zm36.77-7.071-16.971 16.971c-1.3099707 1.317039-3.0924243 2.0552268-4.95 2.05-.061 0-.121-.007-.183-.009l1.4-16.146.212-.017c3.3892693-.2951425 6.0755819-2.9844084 6.367-6.374l.018-.2 16.145-1.4c0 .062.009.122.009.183.0038839 1.8543715-.7330346 3.633488-2.047 4.942zm0-9.9c.7816453.7801661 1.3664192 1.7351368 1.706 2.786l-15.635 1.362 1.36-15.711c1.0047216.3442924 1.917581.9134187 2.669 1.664zm-19.8-9.9c1.3099707-1.317039 3.0924243-2.05522681 4.95-2.05.1 0 .2.01.3.015l-1.485 17.1-.084 1.041c-.2096472 2.4183081-2.1259239 4.3366934-4.544 4.549l-18.142 1.572c-.005-.1-.015-.2-.015-.3-.00522681-1.8575757.732961-3.6400293 2.05-4.95z"/><path id="Shape" d="m45 0c-.5522847 0-1 .44771525-1 1s.4477153 1 1 1c7.1762751.00826602 12.991734 5.82372494 13 13 0 .5522847.4477153 1 1 1s1-.4477153 1-1c-.0093685-8.28038757-6.7196124-14.99063148-15-15z"/><path id="Shape" d="m45 4c-.5522847 0-1 .44771525-1 1s.4477153 1 1 1c4.9680501.00606096 8.993939 4.0319499 9 9 0 .5522847.4477153 1 1 1s1-.4477153 1-1c-.0071635-6.07216255-4.9278374-10.9928365-11-11z"/><path id="Shape" d="m45 10c2.7600532.0033061 4.9966939 2.2399468 5 5 0 .5522847.4477153 1 1 1s1-.4477153 1-1c-.0044086-3.8641657-3.1358343-6.99559136-7-7-.5522847 0-1 .44771525-1 1s.4477153 1 1 1z"/><path id="Shape" d="m15 60c.5522847 0 1-.4477153 1-1s-.4477153-1-1-1c-7.17627506-.008266-12.99173398-5.8237249-13-13 0-.5522847-.44771525-1-1-1s-1 .4477153-1 1c.00936852 8.2803876 6.71961243 14.9906315 15 15z"/><path id="Shape" d="m15 56c.5522847 0 1-.4477153 1-1s-.4477153-1-1-1c-4.9680501-.006061-8.99393904-4.0319499-9-9 0-.5522847-.44771525-1-1-1s-1 .4477153-1 1c.0071635 6.0721626 4.92783745 10.9928365 11 11z"/><path id="Shape" d="m15 50c-2.7600532-.0033061-4.9966939-2.2399468-5-5 0-.5522847-.44771525-1-1-1s-1 .4477153-1 1c.00440864 3.8641657 3.1358343 6.9955914 7 7 .5522847 0 1-.4477153 1-1s-.4477153-1-1-1z"/><path id="Shape" d="m1 16c.55228475 0 1-.4477153 1-1 .00826602-7.17627506 5.82372494-12.99173398 13-13 .5522847 0 1-.44771525 1-1s-.4477153-1-1-1c-8.28038757.00936852-14.99063148 6.71961243-15 15 0 .2652165.10535684.5195704.29289322.7071068s.44189029.2928932.70710678.2928932z"/><path id="Shape" d="m15 4c-6.07216255.0071635-10.9928365 4.92783745-11 11 .00000001.5522847.44771526 1 1 1s.99999999-.4477153 1-1c.00606096-4.9680501 4.0319499-8.99393904 9-9 .5522847 0 1-.44771525 1-1s-.4477153-1-1-1z"/><path id="Shape" d="m15 8c-3.8641657.00440864-6.99559136 3.1358343-7 7 0 .5522847.44771525 1 1 1s1-.4477153 1-1c.0033061-2.7600532 2.2399468-4.9966939 5-5 .5522847 0 1-.44771525 1-1s-.4477153-1-1-1z"/><path id="Shape" d="m59 44c-.5522847 0-1 .4477153-1 1-.008266 7.1762751-5.8237249 12.991734-13 13-.5522847 0-1 .4477153-1 1s.4477153 1 1 1c8.2803876-.0093685 14.9906315-6.7196124 15-15 0-.5522847-.4477153-1-1-1z"/><path id="Shape" d="m45 56c6.0721626-.0071635 10.9928365-4.9278374 11-11 0-.5522847-.4477153-1-1-1s-1 .4477153-1 1c-.006061 4.9680501-4.0319499 8.993939-9 9-.5522847 0-1 .4477153-1 1s.4477153 1 1 1z"/><path id="Shape" d="m45 52c3.8641657-.0044086 6.9955914-3.1358343 7-7 0-.5522847-.4477153-1-1-1s-1 .4477153-1 1c-.0033061 2.7600532-2.2399468 4.9966939-5 5-.5522847 0-1 .4477153-1 1s.4477153 1 1 1z"/></g></g></svg>
