<?xml version="1.0" encoding="iso-8859-1"?>
<!-- Generator: Adobe Illustrator 19.0.0, SVG Export Plug-In . SVG Version: 6.00 Build 0)  -->
<svg version="1.1" id="Capa_1" xmlns="http://www.w3.org/2000/svg" xmlns:xlink="http://www.w3.org/1999/xlink" x="0px" y="0px"
	 viewBox="0 0 512.003 512.003" style="enable-background:new 0 0 512.003 512.003;" xml:space="preserve">
<g>
	<path style="fill:#FEDB41;" d="M405,511.999c-2.738,0-5.463-0.749-7.862-2.225L212.402,396.091
		c-7.056-4.342-9.255-13.581-4.914-20.636c4.342-7.055,13.581-9.255,20.636-4.913l166.217,102.287l87.922-460.637
		c1.553-8.137,9.406-13.476,17.546-11.922c8.137,1.553,13.475,9.409,11.921,17.546l-91.999,481.996
		c-0.924,4.844-4.17,8.924-8.682,10.913C409.117,511.577,407.055,511.999,405,511.999z"/>
	<path style="fill:#FEDB41;" d="M135.762,346.325c-2.682,0-5.396-0.719-7.847-2.227L7.141,269.776
		c-4.633-2.851-7.359-7.987-7.125-13.422c0.235-5.435,3.394-10.317,8.255-12.758L490.267,1.598
		c7.404-3.717,16.419-0.728,20.136,6.675c3.717,7.404,0.729,16.419-6.675,20.136L45.784,258.331l97.853,60.217
		c7.056,4.342,9.255,13.581,4.914,20.636C145.717,343.788,140.798,346.325,135.762,346.325z"/>
</g>
<path style="fill:#FE9923;" d="M508.993,24.011c0.017-0.022,0.03-0.046,0.046-0.069c0.285-0.383,0.551-0.775,0.795-1.178
	c0.069-0.113,0.124-0.231,0.189-0.345c0.177-0.312,0.354-0.624,0.508-0.946c0.102-0.212,0.184-0.429,0.275-0.645
	c0.096-0.229,0.2-0.455,0.285-0.688c0.102-0.279,0.182-0.562,0.266-0.844c0.053-0.177,0.114-0.352,0.16-0.531
	c0.079-0.305,0.136-0.613,0.196-0.921c0.032-0.165,0.072-0.329,0.098-0.495c0.047-0.299,0.074-0.598,0.103-0.898
	c0.018-0.183,0.043-0.364,0.054-0.547c0.016-0.272,0.014-0.543,0.015-0.814c0.001-0.215,0.009-0.429,0.001-0.644
	c-0.009-0.235-0.034-0.468-0.054-0.702c-0.021-0.252-0.037-0.503-0.071-0.754c-0.027-0.2-0.069-0.396-0.104-0.595
	c-0.049-0.279-0.095-0.559-0.16-0.836c-0.043-0.182-0.1-0.359-0.149-0.539c-0.078-0.285-0.153-0.57-0.249-0.851
	c-0.066-0.193-0.147-0.381-0.221-0.572c-0.099-0.258-0.193-0.516-0.308-0.769c-0.109-0.242-0.238-0.476-0.36-0.713
	c-0.099-0.192-0.19-0.387-0.298-0.576c-0.187-0.326-0.397-0.642-0.609-0.955c-0.063-0.092-0.117-0.189-0.182-0.28
	c-0.282-0.396-0.586-0.781-0.91-1.152c-0.009-0.01-0.016-0.022-0.025-0.032c-0.001-0.001-0.001-0.001-0.002-0.002
	c-0.26-0.297-0.543-0.578-0.83-0.856c-0.086-0.083-0.165-0.176-0.252-0.257c-0.085-0.079-0.181-0.149-0.268-0.226
	c-0.301-0.267-0.606-0.53-0.923-0.769c0,0-0.001-0.001-0.002-0.001c-0.009-0.007-0.018-0.012-0.027-0.018
	c-0.396-0.297-0.804-0.572-1.222-0.825c-0.106-0.064-0.216-0.116-0.323-0.177c-0.318-0.182-0.638-0.362-0.966-0.519
	c-0.209-0.1-0.422-0.18-0.634-0.27c-0.233-0.098-0.463-0.203-0.699-0.289c-0.273-0.1-0.55-0.178-0.827-0.261
	c-0.183-0.055-0.365-0.118-0.55-0.166c-0.298-0.077-0.598-0.133-0.899-0.191c-0.173-0.034-0.344-0.075-0.518-0.102
	c-0.288-0.045-0.578-0.071-0.867-0.099c-0.194-0.019-0.386-0.046-0.581-0.057c-0.258-0.015-0.515-0.012-0.772-0.014
	c-0.23-0.002-0.459-0.01-0.688-0.001c-0.218,0.008-0.434,0.033-0.652,0.05c-0.268,0.022-0.536,0.039-0.804,0.075
	c-0.182,0.025-0.361,0.063-0.541,0.095c-0.297,0.051-0.595,0.101-0.889,0.17c-0.162,0.038-0.321,0.09-0.482,0.134
	c-0.304,0.082-0.608,0.163-0.907,0.265c-0.174,0.059-0.343,0.133-0.516,0.199c-0.276,0.106-0.553,0.207-0.823,0.329
	c-0.226,0.102-0.445,0.223-0.667,0.337c-0.207,0.106-0.417,0.204-0.62,0.321c-0.316,0.181-0.621,0.385-0.925,0.59
	c-0.102,0.069-0.208,0.128-0.308,0.2c-0.4,0.285-0.788,0.591-1.162,0.919c-0.006,0.006-0.013,0.01-0.02,0.016l-0.003,0.002
	c-0.029,0.025-0.058,0.05-0.087,0.076L125.12,320.716c-0.114,0.1-0.212,0.21-0.323,0.313c-0.199,0.186-0.397,0.372-0.586,0.568
	c-0.169,0.175-0.328,0.355-0.487,0.536c-0.159,0.182-0.317,0.365-0.468,0.555c-0.161,0.203-0.313,0.409-0.462,0.618
	c-0.133,0.186-0.262,0.373-0.386,0.565c-0.14,0.217-0.273,0.437-0.401,0.66c-0.116,0.202-0.229,0.406-0.336,0.614
	c-0.112,0.219-0.218,0.439-0.319,0.662c-0.103,0.226-0.201,0.454-0.292,0.687c-0.084,0.214-0.162,0.429-0.236,0.646
	c-0.085,0.247-0.164,0.496-0.236,0.749c-0.061,0.216-0.116,0.432-0.167,0.65c-0.06,0.254-0.116,0.509-0.163,0.768
	c-0.043,0.234-0.076,0.468-0.107,0.704c-0.032,0.243-0.063,0.486-0.084,0.733c-0.022,0.266-0.032,0.533-0.04,0.8
	c-0.005,0.154-0.023,0.304-0.023,0.459v164.999c0,6.455,4.129,12.186,10.252,14.229c1.561,0.521,3.162,0.772,4.746,0.772
	c4.629,0,9.108-2.148,11.997-5.993L508.928,24.104c0.021-0.027,0.04-0.054,0.061-0.081L508.993,24.011z M150.001,338.803
	l248.455-217.569L150.001,452.049V338.803z"/>
<g>
</g>
<g>
</g>
<g>
</g>
<g>
</g>
<g>
</g>
<g>
</g>
<g>
</g>
<g>
</g>
<g>
</g>
<g>
</g>
<g>
</g>
<g>
</g>
<g>
</g>
<g>
</g>
<g>
</g>
</svg>
