<svg height="512" viewBox="0 0 58 58" width="512" xmlns="http://www.w3.org/2000/svg"><g id="Page-1" fill="none" fill-rule="evenodd"><g id="043---Self-Chat" fill="rgb(0,0,0)" fill-rule="nonzero"><path id="Shape" d="m44 53v3c-.0032948 1.1032019-.8967981 1.9967052-2 2h-5v-5c0-.5522847-.4477153-1-1-1s-1 .4477153-1 1v5h-12v-5c0-.5522847-.4477153-1-1-1s-1 .4477153-1 1v5h-5c-1.1032019-.0032948-1.9967052-.8967981-2-2v-3c-.0007303-5.1745721 2.6683007-9.9833645 7.06-12.72 4.675805 3.6268427 11.214195 3.6268427 15.89 0 .9582319.6075902 1.8468855 1.318513 2.65 2.12 2.8217111 2.8050799 4.4057795 6.6212447 4.4 10.6z"/><circle id="Oval" cx="29" cy="30" r="11"/><path id="Shape" d="m19 0h-16c-1.65685425 0-3 1.34314575-3 3v8c0 1.6568542 1.34314575 3 3 3h8.14l6.86 6-.75-6h1.75c1.6568542 0 3-1.3431458 3-3v-8c0-1.65685425-1.3431458-3-3-3zm-15 4h2c.55228475 0 1 .44771525 1 1s-.44771525 1-1 1h-2c-.55228475 0-1-.44771525-1-1s.44771525-1 1-1zm8 6h-8c-.55228475 0-1-.44771525-1-1s.44771525-1 1-1h8c.5522847 0 1 .44771525 1 1s-.4477153 1-1 1zm6 0h-2c-.5522847 0-1-.44771525-1-1s.4477153-1 1-1h2c.5522847 0 1 .44771525 1 1s-.4477153 1-1 1zm0-4h-8c-.55228475 0-1-.44771525-1-1s.44771525-1 1-1h8c.5522847 0 1 .44771525 1 1s-.4477153 1-1 1z"/><path id="Shape" d="m55 0h-16c-1.6568542 0-3 1.34314575-3 3v8c0 1.6568542 1.3431458 3 3 3h1.75l-.75 6 6.86-6h8.14c1.6568542 0 3-1.3431458 3-3v-8c0-1.65685425-1.3431458-3-3-3zm-15 4h8c.5522847 0 1 .44771525 1 1s-.4477153 1-1 1h-8c-.5522847 0-1-.44771525-1-1s.4477153-1 1-1zm2 6h-2c-.5522847 0-1-.44771525-1-1s.4477153-1 1-1h2c.5522847 0 1 .44771525 1 1s-.4477153 1-1 1zm12 0h-8c-.5522847 0-1-.44771525-1-1s.4477153-1 1-1h8c.5522847 0 1 .44771525 1 1s-.4477153 1-1 1zm0-4h-2c-.5522847 0-1-.44771525-1-1s.4477153-1 1-1h2c.5522847 0 1 .44771525 1 1s-.4477153 1-1 1z"/></g></g></svg>