<svg height="512" viewBox="0 0 58 58" width="512" xmlns="http://www.w3.org/2000/svg"><g id="Page-1" fill="none" fill-rule="evenodd"><g id="043---Self-Chat" fill-rule="nonzero"><path id="Shape" d="m34.97 39.24c1.730947.7480377 3.3025953 1.8206962 4.63 3.16 2.8217111 2.8050799 4.4057795 6.6212447 4.4 10.6v3c-.0032948 1.1032019-.8967981 1.9967052-2 2h-26c-1.1032019-.0032948-1.9967052-.8967981-2-2v-3c.002401-5.9753017 3.549177-11.3799128 9.03-13.76z" fill="#3b97d3"/><path id="Shape" d="m40 30c0 6.0751322-4.9248678 11-11 11s-11-4.9248678-11-11 4.9248678-11 11-11c2.9193358-.0063904 5.7209433 1.1504826 7.7852303 3.2147697 2.0642871 2.064287 3.2211601 4.8658945 3.2147697 7.7852303z" fill="#fdd7ad"/><path id="Shape" d="m23 53v5h-2v-5c0-.5522847.4477153-1 1-1s1 .4477153 1 1z" fill="#2980ba"/><path id="Shape" d="m37 53v5h-2v-5c0-.5522847.4477153-1 1-1s1 .4477153 1 1z" fill="#2980ba"/><path id="Shape" d="m22 3v8c0 1.6568542-1.3431458 3-3 3h-1.75l.424 3.395c.0508103.4113755-.1574336.811454-.523538 1.0058222-.3661045.1943682-.814169.1427298-1.126462-.1298222l-4.884-4.271h-8.14c-1.65685425 0-3-1.3431458-3-3v-8c0-1.65685425 1.34314575-3 3-3h16c1.6568542 0 3 1.34314575 3 3z" fill="#f29c1f"/><g fill="#fff"><path id="Shape" d="m6 6h-2c-.55228475 0-1-.44771525-1-1s.44771525-1 1-1h2c.55228475 0 1 .44771525 1 1s-.44771525 1-1 1z"/><path id="Shape" d="m18 6h-8c-.55228475 0-1-.44771525-1-1s.44771525-1 1-1h8c.5522847 0 1 .44771525 1 1s-.4477153 1-1 1z"/><path id="Shape" d="m18 10h-2c-.5522847 0-1-.44771525-1-1s.4477153-1 1-1h2c.5522847 0 1 .44771525 1 1s-.4477153 1-1 1z"/><path id="Shape" d="m12 10h-8c-.55228475 0-1-.44771525-1-1s.44771525-1 1-1h8c.5522847 0 1 .44771525 1 1s-.4477153 1-1 1z"/></g><path id="Shape" d="m36 3v8c0 1.6568542 1.3431458 3 3 3h1.75l-.424 3.4c-.0508103.4113755.1574336.811454.523538 1.0058222.3661045.1943682.814169.1427298 1.126462-.1298222l4.884-4.276h8.14c1.6568542 0 3-1.3431458 3-3v-8c0-1.65685425-1.3431458-3-3-3h-16c-1.6568542 0-3 1.34314575-3 3z" fill="#955ba5"/><path id="Shape" d="m54 6h-2c-.5522847 0-1-.44771525-1-1s.4477153-1 1-1h2c.5522847 0 1 .44771525 1 1s-.4477153 1-1 1z" fill="#fff"/><path id="Shape" d="m48 6h-8c-.5522847 0-1-.44771525-1-1s.4477153-1 1-1h8c.5522847 0 1 .44771525 1 1s-.4477153 1-1 1z" fill="#fff"/><path id="Shape" d="m42 10h-2c-.5522847 0-1-.44771525-1-1s.4477153-1 1-1h2c.5522847 0 1 .44771525 1 1s-.4477153 1-1 1z" fill="#fff"/><path id="Shape" d="m54 10h-8c-.5522847 0-1-.44771525-1-1s.4477153-1 1-1h8c.5522847 0 1 .44771525 1 1s-.4477153 1-1 1z" fill="#fff"/></g></g></svg>